<svg width="125" height="40" viewBox="0 0 125 40" fill="none" xmlns="http://www.w3.org/2000/svg">
<g clip-path="url(#clip0_350_407)">
<path d="M42.476 28.9642H41.5011L40.6827 29.827L40.7038 30.1707L41.1878 37.7812L33.6614 34.5827L30.0397 33.0442C28.1436 33.4767 26.1328 33.7105 24.0496 33.7105C12.7028 33.7105 3.50245 26.8108 3.50245 18.2979C3.50245 9.7849 12.7052 2.88286 24.0542 2.88286C29.6259 2.88286 34.6785 4.54758 38.3774 7.24807H41.5455C37.3229 2.84545 30.6406 0 23.119 0C10.3507 0 0 8.19032 0 18.2955C0 28.4007 10.3507 36.5911 23.119 36.5911C25.5366 36.5911 27.8653 36.2965 30.0561 35.7517L42.476 40L41.2088 30.0725L42.476 28.9619V28.9642Z" fill="#37D2CF"/>
<path d="M16.5767 20.145C16.6 21.5361 17.7667 22.0973 19.0223 22.0973C19.9435 22.0973 21.1102 21.7372 21.1102 20.6149C21.1102 19.6493 19.7868 19.3126 17.4979 18.8193C15.6578 18.4148 13.8177 17.7648 13.8177 15.7213C13.8177 12.7589 16.3756 11.9944 18.868 11.9944C21.3604 11.9944 23.7382 12.8478 23.986 15.6979H20.9559C20.867 14.4634 19.9225 14.1267 18.7791 14.1267C18.0613 14.1267 17.0069 14.2623 17.0069 15.2046C17.0069 16.3502 18.8025 16.5069 20.6192 16.9324C22.4827 17.358 24.2994 18.0313 24.2994 20.187C24.2994 23.2382 21.6503 24.2273 19.0036 24.2273C16.3569 24.2273 13.6844 23.2172 13.5488 20.1426H16.579L16.5767 20.145Z" fill="#465B87"/>
<path d="M37.4749 27.9987H34.2881V22.4551H34.2437C33.5025 23.713 31.9757 24.2274 30.5846 24.2274C28.4522 24.2274 25.6699 22.6795 25.6699 18.1904C25.6699 15.0036 27.3533 11.9968 30.8768 11.9968C32.3124 11.9968 33.6825 12.5135 34.4003 13.7925H34.4448V12.3101H37.4749V27.9987ZM31.618 21.8261C33.6825 21.8261 34.4003 20.0749 34.4003 18.167C34.4003 16.2592 33.6825 14.3957 31.6835 14.3957C29.6844 14.3957 28.8544 16.2358 28.8544 18.1203C28.8544 20.0048 29.5278 21.8238 31.6157 21.8238L31.618 21.8261Z" fill="#465B87"/>
<path d="M50.7631 23.914H47.7329V22.2984H47.6651C46.8561 23.6007 45.465 24.2296 44.1182 24.2296C40.7304 24.2296 39.877 22.3217 39.877 19.4482V12.3101H43.0638V18.8637C43.0638 20.7716 43.6249 21.7138 45.1073 21.7138C46.8351 21.7138 47.5763 20.7482 47.5763 18.3914V12.3101H50.7631V23.914Z" fill="#465B87"/>
<path d="M53.2851 15.8804C53.4651 12.8947 56.1352 11.9968 58.7398 11.9968C61.0522 11.9968 63.8345 12.5135 63.8345 15.2959V21.3328C63.8345 22.3873 63.9468 23.4418 64.239 23.9141H61.0078C60.8955 23.554 60.8067 23.1729 60.7833 22.7918C59.7733 23.8463 58.2909 24.2274 56.8787 24.2274C54.6786 24.2274 52.9297 23.1285 52.9297 20.7483C52.9297 18.1226 54.9054 17.4937 56.8787 17.2248C58.831 16.9325 60.6501 17.0003 60.6501 15.698C60.6501 14.3279 59.7078 14.1268 58.5855 14.1268C57.3744 14.1268 56.5888 14.6202 56.4766 15.8781H53.2898L53.2851 15.8804ZM60.6477 18.2372C60.11 18.7095 58.9877 18.7305 57.9987 18.9105C57.012 19.1116 56.1142 19.4483 56.1142 20.615C56.1142 21.7817 57.0354 22.0974 58.0665 22.0974C60.5589 22.0974 60.6477 20.1217 60.6477 19.4273V18.2372Z" fill="#465B87"/>
<path d="M74.8198 22.4339H74.7753C74.0342 23.6918 72.7318 24.2296 71.2518 24.2296C67.7517 24.2296 66.0449 21.2228 66.0449 18.0126C66.0449 14.8024 67.7728 11.9967 71.184 11.9967C72.5542 11.9967 73.9009 12.5812 74.6187 13.7245H74.6631V7.88867H77.8499V23.9139H74.8198V22.4316V22.4339ZM72.0374 14.3979C69.9495 14.3979 69.2317 16.1936 69.2317 18.1014C69.2317 20.0093 70.0618 21.8283 72.0374 21.8283C74.1464 21.8283 74.7753 19.9883 74.7753 18.0804C74.7753 16.1725 74.102 14.4002 72.0374 14.4002V14.3979Z" fill="#465B87"/>
<path d="M80.4863 7.89111H83.6731V13.9281H83.7409C84.5499 12.6257 85.9411 11.9968 87.1312 11.9968C90.5214 11.9968 91.3725 13.9047 91.3725 16.7782V23.9164H88.1857V17.3627C88.1857 15.4548 87.6245 14.5126 86.1422 14.5126C84.4143 14.5126 83.6731 15.4782 83.6731 17.835V23.9164H80.4863V7.89111Z" fill="#37D2CF"/>
<path d="M96.6536 18.8872C96.7425 20.9073 97.7315 21.8261 99.5037 21.8261C100.783 21.8261 101.816 21.0405 102.017 20.3228H104.823C103.925 23.0607 102.017 24.2274 99.3915 24.2274C95.7324 24.2274 93.4668 21.7139 93.4668 18.1226C93.4668 14.5313 95.868 11.9968 99.3915 11.9968C103.341 11.9968 105.248 15.3192 105.024 18.8872H96.6513H96.6536ZM101.837 16.8671C101.545 15.2514 100.85 14.398 99.3003 14.398C97.2802 14.398 96.6957 15.9692 96.6513 16.8671H101.835H101.837Z" fill="#37D2CF"/>
<path d="M107.236 7.89111H110.423V23.914H107.236V7.89111Z" fill="#37D2CF"/>
<path d="M112.938 12.3123H115.968V13.7947H116.012C116.774 12.5602 118.032 11.999 119.468 11.999C123.104 11.999 124.743 14.938 124.743 18.2394C124.743 21.3373 123.038 24.2319 119.648 24.2319C118.257 24.2319 116.931 23.6263 116.169 22.4807H116.124V28.0032H112.938V12.3123ZM121.556 18.1482C121.556 16.3081 120.815 14.4002 118.773 14.4002C116.732 14.4002 116.012 16.2637 116.012 18.1482C116.012 20.0327 116.73 21.8283 118.794 21.8283C120.859 21.8283 121.556 20.0327 121.556 18.1482Z" fill="#37D2CF"/>
</g>
<defs>
<clipPath id="clip0_350_407">
<rect width="124.744" height="40" fill="white"/>
</clipPath>
</defs>
</svg>
